<svg width="40" height="40" viewBox="0 0 40 40" fill="none" xmlns="http://www.w3.org/2000/svg">
<g clip-path="url(#clip0_9_63)">
<path d="M39.5 20C39.5 30.7696 30.7696 39.5 20 39.5C9.23045 39.5 0.5 30.7696 0.5 20C0.5 9.23045 9.23045 0.5 20 0.5C30.7696 0.5 39.5 9.23045 39.5 20Z" fill="url(#paint0_linear_9_63)" stroke="#2275ED"/>
<path d="M25.5808 11H13.4192C12.0462 11 11 12.0462 11 13.4192V25.5808C11 26.9538 12.0462 28 13.4192 28H25.5808C26.9538 28 28 26.9538 28 25.5808V13.4192C28 12.0462 26.9538 11 25.5808 11ZM19.5 24.6C22.3115 24.6 24.6 22.3769 24.6 19.6962C24.6 19.2385 24.5346 18.7154 24.4038 18.3231H25.8423V25.2538C25.8423 25.5808 25.5808 25.9077 25.1885 25.9077H13.8115C13.4846 25.9077 13.1577 25.6462 13.1577 25.2538V18.2577H14.6615C14.5308 18.7154 14.4654 19.1731 14.4654 19.6308C14.4 22.3769 16.6885 24.6 19.5 24.6ZM19.5 22.6385C17.6692 22.6385 16.2308 21.2 16.2308 19.4346C16.2308 17.6692 17.6692 16.2308 19.5 16.2308C21.3308 16.2308 22.7692 17.6692 22.7692 19.4346C22.7692 21.2654 21.3308 22.6385 19.5 22.6385ZM25.7769 15.6423C25.7769 16.0346 25.45 16.3615 25.0577 16.3615H23.2269C22.8346 16.3615 22.5077 16.0346 22.5077 15.6423V13.8769C22.5077 13.4846 22.8346 13.1577 23.2269 13.1577H25.0577C25.45 13.1577 25.7769 13.4846 25.7769 13.8769V15.6423Z" fill="black"/>
</g>
<defs>
<linearGradient id="paint0_linear_9_63" x1="8.5" y1="35.5" x2="35" y2="8" gradientUnits="userSpaceOnUse">
<stop stop-color="#D9D9D9"/>
</linearGradient>
<clipPath id="clip0_9_63">
<rect width="40" height="40" fill="white"/>
</clipPath>
</defs>
</svg>
