<svg xmlns="http://www.w3.org/2000/svg" viewBox="0 0 139.62 76.22"><defs><style>.cls-1{fill:#231f20;}.cls-2,.cls-5{font-size:21px;}.cls-2{font-family:Lato-Black, Lato;font-weight:800;letter-spacing:0.04em;}.cls-3{letter-spacing:-0.03em;}.cls-4{letter-spacing:0.04em;}.cls-5{font-family:Montserrat-Light, Montserrat;font-weight:300;}</style></defs><g id="Layer_2" data-name="Layer 2"><g id="Layer_2-2" data-name="Layer 2"><path class="cls-1" d="M119.88,2.71c-.22.32-9.62,2.58-10.13,2.68s-1.21.6-1.82,2.22C98.7,10.43,91.15,12.5,85.82,13.9c-4.7,1.23-8.27,2.1-16.1,4.15-5.51,1.45-10,2.67-13.09,3.5-1-.21-2.16-.62-2.5-1.55-.21-.59,0-1.06.36-2.12a17.17,17.17,0,0,0,.72-4.17,5.87,5.87,0,0,0-1.42-4.07c-1.43-1.45-3.51-1.4-4.69-1.37a12.28,12.28,0,0,0-6.46,2.41c-1.47.94-1.28,1.1-3.49,2.74a23.52,23.52,0,0,1-5.6,3.5c-2.66,1-5,.74-7.35.47-4.59-.52-5-1.86-9.73-2.55A16.62,16.62,0,0,0,8.72,15,12.66,12.66,0,0,0,2.3,19.19c-2.52,3.23-2.38,7-2.23,9.92.66,13,10.63,21.3,13.19,23.43a15.4,15.4,0,0,0,7.27,3.78,13.23,13.23,0,0,0,6.29-.42,12.53,12.53,0,0,0,3.87-2.13,12.3,12.3,0,0,1-5.62-2.83A12.07,12.07,0,0,1,22,46.59a9.84,9.84,0,0,1-.8-4,8.8,8.8,0,0,1,1.42-4.7,8.66,8.66,0,0,1,3.33-3,11.9,11.9,0,0,1,3.9-1.3,17.17,17.17,0,0,1,2.76-.12c1.45,0,1.43.22,2.22.19a6,6,0,0,0,4.06-1.79A8.4,8.4,0,0,0,40,29.32c1-2.62.69-3,1.39-4a5.59,5.59,0,0,1,3-2,7.62,7.62,0,0,1,2.93.1c1.09.16,1.34.32,2.64.57a26,26,0,0,0,2.93.37,39.54,39.54,0,0,0,4.82.1,33.89,33.89,0,0,0,8.88-1.89c1.62-.59,13.9-4.3,38.46-11.72,3.28-1,6.65-1.62,9.92-2.64a8.27,8.27,0,0,1,2.55-.38,5.2,5.2,0,0,1,1.89.28,4.58,4.58,0,0,1,1.82,1.18c.46.51.83,1.48,1.39,1.85a3.65,3.65,0,0,1,.41.35,2.38,2.38,0,0,0,1.11.09c2.13.22,3,.29,3.49-.35.77-1.12-1.05-4.4-2.93-5.95A4,4,0,0,1,123.62,4c-.62-1.23.13-2.34-.28-2.64C122.69.86,120.69,3,120,2.7"/><circle class="cls-1" cx="111.08" cy="3.48" r="1.16"/><circle class="cls-1" cx="115.32" cy="2.32" r="1.16"/><circle class="cls-1" cx="119.34" cy="1.16" r="1.16"/><text class="cls-2" transform="translate(30.78 52.35)">GUI<tspan class="cls-3" x="39.76" y="0">T</tspan><tspan class="cls-4" x="51.84" y="0">AR</tspan></text><text class="cls-5" transform="translate(47.22 70.78)">SCHOOL</text></g></g></svg>