<svg width="40" height="40" viewBox="0 0 40 40" fill="none" xmlns="http://www.w3.org/2000/svg">
<g clip-path="url(#clip0_9_66)">
<path d="M39.5 20C39.5 30.7696 30.7696 39.5 20 39.5C9.23045 39.5 0.5 30.7696 0.5 20C0.5 9.23045 9.23045 0.5 20 0.5C30.7696 0.5 39.5 9.23045 39.5 20Z" fill="#D9D9D9" stroke="#2275ED"/>
<path d="M29.3182 21.0682C29.3864 20.5227 29.4545 20.0455 29.4545 19.5C29.4545 14.0455 25.0227 9.54545 19.5 9.54545C18.9545 9.54545 18.4773 9.61364 17.9318 9.68182C17.0455 9.20455 16.0909 9 15.1364 9C11.7273 9 9 11.7273 9 15.1364C9 16.0909 9.2045 17.0455 9.6818 17.9318C9.6136 18.4773 9.5455 18.9545 9.5455 19.5C9.5455 24.9545 13.9773 29.4545 19.5 29.4545C20.0455 29.4545 20.5227 29.3864 21.0682 29.3182C21.9545 29.7273 22.9091 30 23.8636 30C27.2727 30 30 27.2727 30 23.8636C30 22.9091 29.7273 21.9545 29.3182 21.0682ZM23.6591 23.1136C23.4545 23.5227 23.1818 23.8636 22.7727 24.1364C22.3636 24.4091 21.9545 24.6136 21.4091 24.75C20.8636 24.8864 20.25 24.9545 19.5682 24.9545C18.1364 24.9545 16.9773 24.6136 16.1591 24C15.6818 23.5909 15.2727 23.1136 15.0682 22.5C14.7955 21.9545 15.2727 21.2727 15.9545 21.2727H16.1591C16.5682 21.2727 16.9773 21.5455 17.1136 21.8864C17.25 22.2273 17.4545 22.5 17.7273 22.7045C18.1364 23.0455 18.75 23.1818 19.5 23.1818C20.1818 23.1818 20.7273 23.0455 21.1364 22.8409C21.5455 22.6364 21.75 22.2273 21.75 21.8182C21.75 21.6136 21.6818 21.4773 21.6136 21.3409C21.5455 21.2045 21.3409 21.0682 21.2045 21C21 20.8636 20.7955 20.7955 20.4545 20.7273C20.1818 20.6591 19.8409 20.5227 19.4318 20.4545L19.0227 20.3182C18.5455 20.1818 18 20.0455 17.5909 19.9091C17.1136 19.7727 16.7045 19.5682 16.3636 19.3636C16.0227 19.1591 15.75 18.8864 15.5455 18.4773C15.3409 18.1364 15.2727 17.6591 15.2727 17.1136C15.2727 16.5682 15.4091 16.0909 15.6136 15.6818C15.8182 15.2727 16.1591 14.9318 16.5 14.7273C16.9091 14.4545 17.3182 14.25 17.8636 14.1818C18.3409 14.0455 18.8864 13.9773 19.5 13.9773C20.1818 13.9773 20.7273 14.0455 21.2727 14.1818C21.8182 14.3182 22.2273 14.5227 22.6364 14.8636C23.0455 15.1364 23.3182 15.4773 23.5227 15.9545C23.8636 16.5682 23.3864 17.3864 22.6364 17.3864H22.4318C22.0227 17.3864 21.6818 17.1818 21.4773 16.8409C21.3409 16.6364 21.2045 16.4318 21 16.2273C20.6591 15.9545 20.1136 15.8182 19.5 15.8182C18.8864 15.8182 18.4091 15.9545 18.0682 16.1591C17.7273 16.3636 17.5909 16.7045 17.5909 17.0455C17.5909 17.25 17.6591 17.3864 17.7273 17.5227C17.7955 17.6591 17.9318 17.7955 18.1364 17.8636C18.3409 17.9318 18.5455 18.0682 18.8182 18.1364C19.0909 18.2045 19.4318 18.2727 19.8409 18.4091C20.25 18.4773 20.5909 18.6136 21 18.6818C21.3409 18.75 21.6818 18.8864 22.0227 18.9545C22.3636 19.0909 22.6364 19.2273 22.9091 19.3636C23.1818 19.5 23.3864 19.7045 23.5909 19.9091C23.7955 20.1136 23.9318 20.3864 24 20.6591C24.1364 20.9318 24.1364 21.3409 24.1364 21.75C24 22.2273 23.8636 22.7045 23.6591 23.1136Z" fill="black"/>
</g>
<defs>
<clipPath id="clip0_9_66">
<rect width="40" height="40" fill="white"/>
</clipPath>
</defs>
</svg>
