<svg width="40" height="40" viewBox="0 0 40 40" fill="none" xmlns="http://www.w3.org/2000/svg">
<g clip-path="url(#clip0_9_69)">
<path d="M39.5 20C39.5 30.7696 30.7696 39.5 20 39.5C9.23045 39.5 0.5 30.7696 0.5 20C0.5 9.23045 9.23045 0.5 20 0.5C30.7696 0.5 39.5 9.23045 39.5 20Z" fill="#D9D9D9" stroke="#2275ED"/>
<path d="M10.3507 19.3741L14.9488 21.0886L16.7413 26.8557C16.8192 27.2454 17.2868 27.3233 17.5985 27.0895L20.1703 24.9853C20.4041 24.7515 20.7938 24.7515 21.1055 24.9853L25.7036 28.3364C26.0154 28.5702 26.483 28.4144 26.5609 28.0247L29.99 11.6587C30.0679 11.269 29.6782 10.8793 29.2886 11.0352L10.3507 18.3609C9.8831 18.5168 9.8831 19.2182 10.3507 19.3741ZM16.5075 20.2313L25.5477 14.6981C25.7036 14.6201 25.8595 14.8539 25.7036 14.9319L18.2999 21.868C18.0661 22.1018 17.8323 22.4135 17.8323 22.8032L17.5985 24.6736C17.5985 24.9074 17.2089 24.9853 17.1309 24.6736L16.1957 21.2445C15.9619 20.8548 16.1178 20.3872 16.5075 20.2313Z" fill="black"/>
</g>
<defs>
<clipPath id="clip0_9_69">
<rect width="40" height="40" fill="white"/>
</clipPath>
</defs>
</svg>
