<svg width="40" height="40" viewBox="0 0 40 40" fill="none" xmlns="http://www.w3.org/2000/svg">
<g clip-path="url(#clip0_9_72)">
<path d="M39.5 20C39.5 30.7696 30.7696 39.5 20 39.5C9.23045 39.5 0.5 30.7696 0.5 20C0.5 9.23045 9.23045 0.5 20 0.5C30.7696 0.5 39.5 9.23045 39.5 20Z" fill="#D9D9D9" stroke="#2F89CE"/>
<path d="M30.6727 24.876C30.6727 24.7929 30.5897 24.7929 30.5897 24.7099C30.2576 24.0457 29.5104 23.2155 28.5141 22.3023C28.016 21.8871 27.7669 21.555 27.6009 21.389C27.3518 21.0569 27.3518 20.8078 27.4349 20.4757C27.5179 20.2267 27.85 19.8116 28.4311 19.0643C28.7632 18.6492 28.9292 18.4002 29.1783 18.1511C30.4237 16.4906 31.0048 15.4113 30.8388 14.9132L30.7558 14.8302C30.6727 14.7472 30.5897 14.6641 30.4237 14.6641C30.2576 14.5811 30.0086 14.5811 29.7595 14.6641H26.6046C26.5216 14.6641 26.5216 14.6641 26.3555 14.6641C26.2725 14.6641 26.1895 14.6641 26.1895 14.6641H26.1065H26.0235L25.9404 14.7472C25.8574 14.8302 25.8574 14.8302 25.8574 14.9132C25.5253 15.8265 25.1102 16.5737 24.6951 17.4039C24.446 17.819 24.1969 18.2341 23.9479 18.5662C23.6988 18.8983 23.5328 19.1474 23.3667 19.3134C23.2007 19.4795 23.0346 19.5625 22.9516 19.7285C22.8686 19.8116 22.7025 19.8946 22.7025 19.8116C22.6195 19.8116 22.5365 19.8116 22.5365 19.7285C22.4535 19.6455 22.3704 19.5625 22.2874 19.4795C22.2044 19.3964 22.2044 19.2304 22.1214 19.0643C22.1214 18.8983 22.1214 18.7323 22.1214 18.6492C22.1214 18.5662 22.1214 18.3171 22.1214 18.1511C22.1214 17.902 22.1214 17.736 22.1214 17.653C22.1214 17.4039 22.1214 17.0718 22.1214 16.7397C22.1214 16.4076 22.1214 16.1585 22.1214 15.9925C22.1214 15.8265 22.1214 15.5774 22.1214 15.4113C22.1214 15.1623 22.1214 14.9962 22.1214 14.9132C22.1214 14.8302 22.0384 14.6641 22.0384 14.5811C21.9553 14.4981 21.8723 14.4151 21.7893 14.332C21.7063 14.249 21.5402 14.249 21.4572 14.166C21.0421 14.083 20.5439 14 19.9628 14C18.6344 14 17.7212 14.083 17.3891 14.249C17.223 14.3321 17.057 14.4151 16.974 14.5811C16.8079 14.7472 16.8079 14.8302 16.8909 14.8302C17.306 14.9132 17.6381 15.0792 17.8042 15.3283L17.8872 15.4944C17.9702 15.5774 17.9702 15.7434 18.0532 15.9925C18.1363 16.2416 18.1363 16.4906 18.1363 16.8227C18.1363 17.3209 18.1363 17.819 18.1363 18.1511C18.1363 18.5662 18.0532 18.8153 18.0532 19.0643C18.0532 19.3134 17.9702 19.4795 17.8872 19.5625C17.8042 19.7285 17.8042 19.8116 17.7212 19.8116C17.7212 19.8116 17.7212 19.8946 17.6381 19.8946C17.5551 19.8946 17.4721 19.9776 17.306 19.9776C17.223 19.9776 17.057 19.8946 16.974 19.8116C16.8079 19.7285 16.6419 19.5625 16.5588 19.3964C16.3928 19.2304 16.2267 18.9813 16.0607 18.6492C15.8947 18.3171 15.6456 17.9851 15.4795 17.4869L15.3135 17.1548C15.2305 16.9888 15.0644 16.6567 14.8984 16.2416C14.7323 15.8265 14.5663 15.4944 14.4002 15.0793C14.3172 14.9132 14.2342 14.8302 14.1512 14.7472H14.0682C14.0682 14.7472 13.9851 14.6641 13.9021 14.6641C13.8191 14.6641 13.7361 14.5811 13.653 14.5811H10.6642C10.3321 14.5811 10.166 14.6641 10.083 14.7472L10 14.8302C10 14.8302 10 14.9132 10 14.9962C10 15.0793 10 15.1623 10.083 15.3283C10.4981 16.3246 10.9963 17.3209 11.4944 18.3171C11.9926 19.2304 12.4907 20.0606 12.8228 20.6418C13.2379 21.223 13.57 21.8041 13.9851 22.3023C14.4002 22.8004 14.6493 23.1325 14.7323 23.2985C14.8984 23.4646 14.9814 23.5476 15.0644 23.6306L15.3135 23.8797C15.4795 24.0457 15.7286 24.2948 16.0607 24.5439C16.3928 24.7929 16.8079 25.042 17.223 25.2911C17.6381 25.5401 18.1363 25.7062 18.6344 25.8722C19.2156 26.0383 19.7137 26.1213 20.2118 26.0383H21.4572C21.7063 26.0383 21.8723 25.9553 22.0384 25.7892L22.1214 25.7062C22.1214 25.6232 22.2044 25.6232 22.2044 25.5401C22.2044 25.4571 22.2044 25.3741 22.2044 25.2081C22.2044 24.876 22.2044 24.6269 22.2874 24.3778C22.3704 24.1288 22.3705 23.9627 22.4535 23.7967C22.5365 23.6306 22.6195 23.5476 22.7025 23.4646C22.7856 23.3815 22.8686 23.2985 22.8686 23.2985H22.9516C23.1176 23.2155 23.3667 23.2985 23.5328 23.4646C23.7818 23.6306 24.0309 23.8797 24.1969 24.1288C24.363 24.3778 24.6121 24.6269 24.9442 24.959C25.2763 25.2911 25.5253 25.5401 25.6914 25.6232L25.9404 25.7892C26.1065 25.8722 26.2725 25.9553 26.5216 26.0383C26.7707 26.1213 26.9367 26.1213 27.1027 26.1213L29.9255 26.0383C30.1746 26.0383 30.4237 25.9553 30.5897 25.8722C30.7558 25.7892 30.8388 25.7062 30.8388 25.5401C30.8388 25.4571 30.8388 25.2911 30.8388 25.2081C30.6727 25.042 30.6727 24.959 30.6727 24.876Z" fill="black"/>
</g>
<defs>
<clipPath id="clip0_9_72">
<rect width="40" height="40" fill="white"/>
</clipPath>
</defs>
</svg>
